<svg xmlns="http://www.w3.org/2000/svg" viewBox="0 0 14 44" width="14" height="44" fill="currentColor"><path d="M13.0729 17.6825 A3.61 3.61 0 0 0 11.336 20.7 c.044 2.4 2.13 3.2 2.16 3.213 -.023.075 -.337 1.157 -1.114 2.275 -.658.97 -1.346 1.937 -2.43 1.957 -1.054.02 -1.4-.624 -2.61-.624 -1.21 0 -1.59.6 -2.6.643 -1.04.04 -1.84-1.05 -2.51-2.02 -1.36-1.97 -2.4-5.55 -1-7.97a3.87 3.87 0 0 1 3.27-1.99c1.04-.02 2.02.7 2.66.7.62 0 1.83-.86 3.06-.74a3.7 3.7 0 0 1 2.91 1.55Zm-2-3.05a3.62 3.62 0 0 0 .82-2.6 3.7 3.7 0 0 0 -2.4 1.24 3.43 3.43 0 0 0 -.85 2.5 3.07 3.07 0 0 0 2.43-1.14Z"></path></svg>